<?xml version="1.0" encoding="iso-8859-1"?>
<!-- Generator: Adobe Illustrator 16.0.0, SVG Export Plug-In . SVG Version: 6.00 Build 0)  -->
<!DOCTYPE svg PUBLIC "-//W3C//DTD SVG 1.1//EN" "http://www.w3.org/Graphics/SVG/1.1/DTD/svg11.dtd">
<svg version="1.1" id="Capa_1" xmlns="http://www.w3.org/2000/svg" xmlns:xlink="http://www.w3.org/1999/xlink" x="0px" y="0px"
	 width="490.939px" height="490.939px" viewBox="0 0 490.939 490.939" style="enable-background:new 0 0 490.939 490.939;"
	 xml:space="preserve">
<g>
	<g>
		<path d="M41.552,490.939c-2.665,0-5.297-1.064-7.237-3.095c-3.185-3.337-3.675-8.419-1.186-12.303L181.221,244.52L33.149,15.43
			c-2.508-3.88-2.031-8.973,1.152-12.32c3.183-3.347,8.245-4.081,12.246-1.768l407.844,235.47c3.094,1.786,5,5.088,5,8.66
			s-1.906,6.874-5,8.66L46.548,489.6C44.986,490.5,43.263,490.939,41.552,490.939z M72.451,39.39l129.061,199.679
			c2.128,3.293,2.136,7.525,0.02,10.825L72.156,451.721l357.236-206.25L72.451,39.39z"/>
	</g>
</g>
<g>
</g>
<g>
</g>
<g>
</g>
<g>
</g>
<g>
</g>
<g>
</g>
<g>
</g>
<g>
</g>
<g>
</g>
<g>
</g>
<g>
</g>
<g>
</g>
<g>
</g>
<g>
</g>
<g>
</g>
</svg>
